G04 #@! TF.GenerationSoftware,KiCad,Pcbnew,(5.1.0)-1*
G04 #@! TF.CreationDate,2019-04-06T20:38:15-05:00*
G04 #@! TF.ProjectId,kicon19-blinky,6b69636f-6e31-4392-9d62-6c696e6b792e,rev?*
G04 #@! TF.SameCoordinates,Original*
G04 #@! TF.FileFunction,Legend,Top*
G04 #@! TF.FilePolarity,Positive*
%FSLAX46Y46*%
G04 Gerber Fmt 4.6, Leading zero omitted, Abs format (unit mm)*
G04 Created by KiCad (PCBNEW (5.1.0)-1) date 2019-04-06 20:38:15*
%MOMM*%
%LPD*%
G04 APERTURE LIST*
%ADD10C,0.120000*%
%ADD11C,0.150000*%
G04 APERTURE END LIST*
D10*
X156320000Y-100270000D02*
X154670000Y-100270000D01*
X156320000Y-110550000D02*
X156320000Y-100270000D01*
X151020000Y-110550000D02*
X156320000Y-110550000D01*
X151020000Y-100270000D02*
X151020000Y-110550000D01*
X152670000Y-100270000D02*
X151020000Y-100270000D01*
X154670000Y-100270000D02*
G75*
G02X152670000Y-100270000I-1000000J0D01*
G01*
X165520000Y-118170000D02*
X165520000Y-117170000D01*
X165020000Y-117670000D02*
X165520000Y-118170000D01*
X165520000Y-117170000D02*
X165020000Y-117670000D01*
X160300000Y-124080000D02*
X160610000Y-124080000D01*
X160300000Y-115260000D02*
X160610000Y-115260000D01*
X164510000Y-115260000D02*
X164820000Y-115260000D01*
X160300000Y-124080000D02*
X160300000Y-115260000D01*
X164820000Y-124080000D02*
X164510000Y-124080000D01*
X164820000Y-115260000D02*
X164820000Y-124080000D01*
X161190000Y-109950000D02*
X163930000Y-109950000D01*
X163930000Y-109950000D02*
X163930000Y-103410000D01*
X163930000Y-103410000D02*
X161190000Y-103410000D01*
X161190000Y-103410000D02*
X161190000Y-109950000D01*
X162560000Y-110720000D02*
X162560000Y-109950000D01*
X162560000Y-102640000D02*
X162560000Y-103410000D01*
X144780000Y-102640000D02*
X144780000Y-103410000D01*
X144780000Y-110720000D02*
X144780000Y-109950000D01*
X143410000Y-103410000D02*
X143410000Y-109950000D01*
X146150000Y-103410000D02*
X143410000Y-103410000D01*
X146150000Y-109950000D02*
X146150000Y-103410000D01*
X143410000Y-109950000D02*
X146150000Y-109950000D01*
X144780000Y-115340000D02*
X144780000Y-116110000D01*
X144780000Y-123420000D02*
X144780000Y-122650000D01*
X143410000Y-116110000D02*
X143410000Y-122650000D01*
X146150000Y-116110000D02*
X143410000Y-116110000D01*
X146150000Y-122650000D02*
X146150000Y-116110000D01*
X143410000Y-122650000D02*
X146150000Y-122650000D01*
X164105000Y-93960000D02*
X161015000Y-93960000D01*
X165060000Y-96520000D02*
G75*
G03X165060000Y-96520000I-2500000J0D01*
G01*
X162560462Y-99510000D02*
G75*
G02X161015170Y-93960000I-462J2990000D01*
G01*
X162559538Y-99510000D02*
G75*
G03X164104830Y-93960000I462J2990000D01*
G01*
X146325000Y-93960000D02*
X143235000Y-93960000D01*
X147280000Y-96520000D02*
G75*
G03X147280000Y-96520000I-2500000J0D01*
G01*
X144780462Y-99510000D02*
G75*
G02X143235170Y-93960000I-462J2990000D01*
G01*
X144779538Y-99510000D02*
G75*
G03X146324830Y-93960000I462J2990000D01*
G01*
X151070000Y-115670000D02*
X151070000Y-112930000D01*
X156310000Y-115670000D02*
X156310000Y-112930000D01*
X156310000Y-112930000D02*
X151070000Y-112930000D01*
X156310000Y-115670000D02*
X151070000Y-115670000D01*
X150670000Y-118450000D02*
X150670000Y-124150000D01*
X150670000Y-118450000D02*
X156670000Y-118450000D01*
X156670000Y-118450000D02*
X156670000Y-124150000D01*
X157196384Y-124901754D02*
G75*
G02X156670000Y-124150000I273616J751754D01*
G01*
X153624719Y-147345671D02*
G75*
G03X157170000Y-124900000I45281J11495671D01*
G01*
X150143616Y-124901754D02*
G75*
G03X150670000Y-124150000I-273616J751754D01*
G01*
X153715281Y-147345671D02*
G75*
G02X150170000Y-124900000I-45281J11495671D01*
G01*
D11*
X153777142Y-123971428D02*
X153777142Y-122828571D01*
X154348571Y-123400000D02*
X153205714Y-123400000D01*
M02*
