G04 #@! TF.GenerationSoftware,KiCad,Pcbnew,(5.1.0)-1*
G04 #@! TF.CreationDate,2019-04-06T20:38:15-05:00*
G04 #@! TF.ProjectId,kicon19-blinky,6b69636f-6e31-4392-9d62-6c696e6b792e,rev?*
G04 #@! TF.SameCoordinates,Original*
G04 #@! TF.FileFunction,Soldermask,Top*
G04 #@! TF.FilePolarity,Negative*
%FSLAX46Y46*%
G04 Gerber Fmt 4.6, Leading zero omitted, Abs format (unit mm)*
G04 Created by KiCad (PCBNEW (5.1.0)-1) date 2019-04-06 20:38:15*
%MOMM*%
%LPD*%
G04 APERTURE LIST*
%ADD10C,0.100000*%
G04 APERTURE END LIST*
D10*
G36*
X153972585Y-139618802D02*
G01*
X154122410Y-139648604D01*
X154404674Y-139765521D01*
X154658705Y-139935259D01*
X154874741Y-140151295D01*
X155044479Y-140405326D01*
X155161396Y-140687590D01*
X155221000Y-140987240D01*
X155221000Y-141292760D01*
X155161396Y-141592410D01*
X155044479Y-141874674D01*
X154874741Y-142128705D01*
X154658705Y-142344741D01*
X154404674Y-142514479D01*
X154122410Y-142631396D01*
X153972585Y-142661198D01*
X153822761Y-142691000D01*
X153517239Y-142691000D01*
X153367415Y-142661198D01*
X153217590Y-142631396D01*
X152935326Y-142514479D01*
X152681295Y-142344741D01*
X152465259Y-142128705D01*
X152295521Y-141874674D01*
X152178604Y-141592410D01*
X152119000Y-141292760D01*
X152119000Y-140987240D01*
X152178604Y-140687590D01*
X152295521Y-140405326D01*
X152465259Y-140151295D01*
X152681295Y-139935259D01*
X152935326Y-139765521D01*
X153217590Y-139648604D01*
X153367415Y-139618802D01*
X153517239Y-139589000D01*
X153822761Y-139589000D01*
X153972585Y-139618802D01*
X153972585Y-139618802D01*
G37*
G36*
X145028228Y-123641703D02*
G01*
X145183100Y-123705853D01*
X145322481Y-123798985D01*
X145441015Y-123917519D01*
X145534147Y-124056900D01*
X145598297Y-124211772D01*
X145631000Y-124376184D01*
X145631000Y-124543816D01*
X145598297Y-124708228D01*
X145534147Y-124863100D01*
X145441015Y-125002481D01*
X145322481Y-125121015D01*
X145183100Y-125214147D01*
X145028228Y-125278297D01*
X144863816Y-125311000D01*
X144696184Y-125311000D01*
X144531772Y-125278297D01*
X144376900Y-125214147D01*
X144237519Y-125121015D01*
X144118985Y-125002481D01*
X144025853Y-124863100D01*
X143961703Y-124708228D01*
X143929000Y-124543816D01*
X143929000Y-124376184D01*
X143961703Y-124211772D01*
X144025853Y-124056900D01*
X144118985Y-123917519D01*
X144237519Y-123798985D01*
X144376900Y-123705853D01*
X144531772Y-123641703D01*
X144696184Y-123609000D01*
X144863816Y-123609000D01*
X145028228Y-123641703D01*
X145028228Y-123641703D01*
G37*
G36*
X163138571Y-120872863D02*
G01*
X163217023Y-120880590D01*
X163317682Y-120911125D01*
X163368013Y-120926392D01*
X163507165Y-121000771D01*
X163629133Y-121100867D01*
X163729229Y-121222835D01*
X163803608Y-121361987D01*
X163803608Y-121361988D01*
X163849410Y-121512977D01*
X163864875Y-121670000D01*
X163849410Y-121827023D01*
X163818875Y-121927682D01*
X163803608Y-121978013D01*
X163729229Y-122117165D01*
X163629133Y-122239133D01*
X163507165Y-122339229D01*
X163391161Y-122401235D01*
X163370787Y-122414849D01*
X163353460Y-122432176D01*
X163339846Y-122452550D01*
X163330469Y-122475189D01*
X163325689Y-122499223D01*
X163325689Y-122523727D01*
X163330470Y-122547760D01*
X163339847Y-122570399D01*
X163353461Y-122590773D01*
X163370788Y-122608100D01*
X163391162Y-122621714D01*
X163413801Y-122631091D01*
X163433516Y-122635012D01*
X163435631Y-122635654D01*
X163435635Y-122635654D01*
X163652600Y-122701470D01*
X163652602Y-122701471D01*
X163852555Y-122808347D01*
X164027818Y-122952182D01*
X164171653Y-123127445D01*
X164278529Y-123327398D01*
X164344346Y-123544366D01*
X164366569Y-123770000D01*
X164344346Y-123995634D01*
X164278529Y-124212602D01*
X164171653Y-124412555D01*
X164027818Y-124587818D01*
X163852555Y-124731653D01*
X163652602Y-124838529D01*
X163652600Y-124838530D01*
X163435635Y-124904346D01*
X163379271Y-124909897D01*
X163266545Y-124921000D01*
X161853455Y-124921000D01*
X161740729Y-124909897D01*
X161684365Y-124904346D01*
X161467400Y-124838530D01*
X161467398Y-124838529D01*
X161267445Y-124731653D01*
X161092182Y-124587818D01*
X160948347Y-124412555D01*
X160841471Y-124212602D01*
X160775654Y-123995634D01*
X160753431Y-123770000D01*
X160775654Y-123544366D01*
X160841471Y-123327398D01*
X160948347Y-123127445D01*
X161092182Y-122952182D01*
X161267445Y-122808347D01*
X161467398Y-122701471D01*
X161467400Y-122701470D01*
X161684365Y-122635654D01*
X161684369Y-122635654D01*
X161686484Y-122635012D01*
X161706197Y-122631091D01*
X161728836Y-122621715D01*
X161749210Y-122608101D01*
X161766538Y-122590775D01*
X161780152Y-122570401D01*
X161789530Y-122547762D01*
X161794311Y-122523729D01*
X161794311Y-122499225D01*
X161789531Y-122475191D01*
X161780155Y-122452552D01*
X161766541Y-122432178D01*
X161749215Y-122414850D01*
X161728839Y-122401235D01*
X161612835Y-122339229D01*
X161490867Y-122239133D01*
X161390771Y-122117165D01*
X161316392Y-121978013D01*
X161301125Y-121927682D01*
X161270590Y-121827023D01*
X161255125Y-121670000D01*
X161270590Y-121512977D01*
X161316392Y-121361988D01*
X161316392Y-121361987D01*
X161390771Y-121222835D01*
X161490867Y-121100867D01*
X161612835Y-121000771D01*
X161751987Y-120926392D01*
X161802318Y-120911125D01*
X161902977Y-120880590D01*
X161981429Y-120872863D01*
X162020654Y-120869000D01*
X163099346Y-120869000D01*
X163138571Y-120872863D01*
X163138571Y-120872863D01*
G37*
G36*
X155221000Y-122201000D02*
G01*
X152119000Y-122201000D01*
X152119000Y-119099000D01*
X155221000Y-119099000D01*
X155221000Y-122201000D01*
X155221000Y-122201000D01*
G37*
G36*
X163138571Y-118872863D02*
G01*
X163217023Y-118880590D01*
X163317682Y-118911125D01*
X163368013Y-118926392D01*
X163507165Y-119000771D01*
X163629133Y-119100867D01*
X163729229Y-119222835D01*
X163803608Y-119361987D01*
X163803608Y-119361988D01*
X163849410Y-119512977D01*
X163864875Y-119670000D01*
X163849410Y-119827023D01*
X163818875Y-119927682D01*
X163803608Y-119978013D01*
X163729229Y-120117165D01*
X163629133Y-120239133D01*
X163507165Y-120339229D01*
X163368013Y-120413608D01*
X163317682Y-120428875D01*
X163217023Y-120459410D01*
X163138571Y-120467137D01*
X163099346Y-120471000D01*
X162020654Y-120471000D01*
X161981429Y-120467137D01*
X161902977Y-120459410D01*
X161802318Y-120428875D01*
X161751987Y-120413608D01*
X161612835Y-120339229D01*
X161490867Y-120239133D01*
X161390771Y-120117165D01*
X161316392Y-119978013D01*
X161301125Y-119927682D01*
X161270590Y-119827023D01*
X161255125Y-119670000D01*
X161270590Y-119512977D01*
X161316392Y-119361988D01*
X161316392Y-119361987D01*
X161390771Y-119222835D01*
X161490867Y-119100867D01*
X161612835Y-119000771D01*
X161751987Y-118926392D01*
X161802318Y-118911125D01*
X161902977Y-118880590D01*
X161981429Y-118872863D01*
X162020654Y-118869000D01*
X163099346Y-118869000D01*
X163138571Y-118872863D01*
X163138571Y-118872863D01*
G37*
G36*
X163379271Y-114430103D02*
G01*
X163435635Y-114435654D01*
X163652600Y-114501470D01*
X163652602Y-114501471D01*
X163852555Y-114608347D01*
X164027818Y-114752182D01*
X164171653Y-114927445D01*
X164216316Y-115011005D01*
X164278530Y-115127400D01*
X164281954Y-115138687D01*
X164344346Y-115344366D01*
X164366569Y-115570000D01*
X164344346Y-115795634D01*
X164278529Y-116012602D01*
X164171653Y-116212555D01*
X164027818Y-116387818D01*
X163852555Y-116531653D01*
X163661521Y-116633762D01*
X163641147Y-116647375D01*
X163623820Y-116664702D01*
X163610206Y-116685077D01*
X163600828Y-116707715D01*
X163596048Y-116731749D01*
X163596048Y-116756253D01*
X163600828Y-116780286D01*
X163610206Y-116802925D01*
X163623819Y-116823299D01*
X163641146Y-116840626D01*
X163661521Y-116854240D01*
X163684159Y-116863618D01*
X163708193Y-116868398D01*
X163720445Y-116869000D01*
X163861000Y-116869000D01*
X163861000Y-118471000D01*
X161259000Y-118471000D01*
X161259000Y-116869000D01*
X161399555Y-116869000D01*
X161423941Y-116866598D01*
X161447390Y-116859485D01*
X161469001Y-116847934D01*
X161487943Y-116832389D01*
X161503488Y-116813447D01*
X161515039Y-116791836D01*
X161522152Y-116768387D01*
X161524554Y-116744001D01*
X161522152Y-116719615D01*
X161515039Y-116696166D01*
X161503488Y-116674555D01*
X161487943Y-116655613D01*
X161469001Y-116640068D01*
X161458479Y-116633762D01*
X161267445Y-116531653D01*
X161092182Y-116387818D01*
X160948347Y-116212555D01*
X160841471Y-116012602D01*
X160775654Y-115795634D01*
X160753431Y-115570000D01*
X160775654Y-115344366D01*
X160838046Y-115138687D01*
X160841470Y-115127400D01*
X160903684Y-115011005D01*
X160948347Y-114927445D01*
X161092182Y-114752182D01*
X161267445Y-114608347D01*
X161467398Y-114501471D01*
X161467400Y-114501470D01*
X161684365Y-114435654D01*
X161740729Y-114430103D01*
X161853455Y-114419000D01*
X163266545Y-114419000D01*
X163379271Y-114430103D01*
X163379271Y-114430103D01*
G37*
G36*
X155188228Y-113481703D02*
G01*
X155343100Y-113545853D01*
X155482481Y-113638985D01*
X155601015Y-113757519D01*
X155694147Y-113896900D01*
X155758297Y-114051772D01*
X155791000Y-114216184D01*
X155791000Y-114383816D01*
X155758297Y-114548228D01*
X155694147Y-114703100D01*
X155601015Y-114842481D01*
X155482481Y-114961015D01*
X155343100Y-115054147D01*
X155188228Y-115118297D01*
X155023816Y-115151000D01*
X154856184Y-115151000D01*
X154691772Y-115118297D01*
X154536900Y-115054147D01*
X154397519Y-114961015D01*
X154278985Y-114842481D01*
X154185853Y-114703100D01*
X154121703Y-114548228D01*
X154089000Y-114383816D01*
X154089000Y-114216184D01*
X154121703Y-114051772D01*
X154185853Y-113896900D01*
X154278985Y-113757519D01*
X154397519Y-113638985D01*
X154536900Y-113545853D01*
X154691772Y-113481703D01*
X154856184Y-113449000D01*
X155023816Y-113449000D01*
X155188228Y-113481703D01*
X155188228Y-113481703D01*
G37*
G36*
X152688228Y-113481703D02*
G01*
X152843100Y-113545853D01*
X152982481Y-113638985D01*
X153101015Y-113757519D01*
X153194147Y-113896900D01*
X153258297Y-114051772D01*
X153291000Y-114216184D01*
X153291000Y-114383816D01*
X153258297Y-114548228D01*
X153194147Y-114703100D01*
X153101015Y-114842481D01*
X152982481Y-114961015D01*
X152843100Y-115054147D01*
X152688228Y-115118297D01*
X152523816Y-115151000D01*
X152356184Y-115151000D01*
X152191772Y-115118297D01*
X152036900Y-115054147D01*
X151897519Y-114961015D01*
X151778985Y-114842481D01*
X151685853Y-114703100D01*
X151621703Y-114548228D01*
X151589000Y-114383816D01*
X151589000Y-114216184D01*
X151621703Y-114051772D01*
X151685853Y-113896900D01*
X151778985Y-113757519D01*
X151897519Y-113638985D01*
X152036900Y-113545853D01*
X152191772Y-113481703D01*
X152356184Y-113449000D01*
X152523816Y-113449000D01*
X152688228Y-113481703D01*
X152688228Y-113481703D01*
G37*
G36*
X144946823Y-113461313D02*
G01*
X145107242Y-113509976D01*
X145174361Y-113545852D01*
X145255078Y-113588996D01*
X145384659Y-113695341D01*
X145491004Y-113824922D01*
X145491005Y-113824924D01*
X145570024Y-113972758D01*
X145618687Y-114133177D01*
X145635117Y-114300000D01*
X145618687Y-114466823D01*
X145579083Y-114597380D01*
X145575756Y-114608348D01*
X145570024Y-114627242D01*
X145529477Y-114703100D01*
X145491004Y-114775078D01*
X145384659Y-114904659D01*
X145255078Y-115011004D01*
X145255076Y-115011005D01*
X145107242Y-115090024D01*
X144946823Y-115138687D01*
X144821804Y-115151000D01*
X144738196Y-115151000D01*
X144613177Y-115138687D01*
X144452758Y-115090024D01*
X144304924Y-115011005D01*
X144304922Y-115011004D01*
X144175341Y-114904659D01*
X144068996Y-114775078D01*
X144030523Y-114703100D01*
X143989976Y-114627242D01*
X143984245Y-114608348D01*
X143980917Y-114597380D01*
X143941313Y-114466823D01*
X143924883Y-114300000D01*
X143941313Y-114133177D01*
X143989976Y-113972758D01*
X144068995Y-113824924D01*
X144068996Y-113824922D01*
X144175341Y-113695341D01*
X144304922Y-113588996D01*
X144385639Y-113545852D01*
X144452758Y-113509976D01*
X144613177Y-113461313D01*
X144738196Y-113449000D01*
X144821804Y-113449000D01*
X144946823Y-113461313D01*
X144946823Y-113461313D01*
G37*
G36*
X145028228Y-110941703D02*
G01*
X145183100Y-111005853D01*
X145322481Y-111098985D01*
X145441015Y-111217519D01*
X145534147Y-111356900D01*
X145598297Y-111511772D01*
X145631000Y-111676184D01*
X145631000Y-111843816D01*
X145598297Y-112008228D01*
X145534147Y-112163100D01*
X145441015Y-112302481D01*
X145322481Y-112421015D01*
X145183100Y-112514147D01*
X145028228Y-112578297D01*
X144863816Y-112611000D01*
X144696184Y-112611000D01*
X144531772Y-112578297D01*
X144376900Y-112514147D01*
X144237519Y-112421015D01*
X144118985Y-112302481D01*
X144025853Y-112163100D01*
X143961703Y-112008228D01*
X143929000Y-111843816D01*
X143929000Y-111676184D01*
X143961703Y-111511772D01*
X144025853Y-111356900D01*
X144118985Y-111217519D01*
X144237519Y-111098985D01*
X144376900Y-111005853D01*
X144531772Y-110941703D01*
X144696184Y-110909000D01*
X144863816Y-110909000D01*
X145028228Y-110941703D01*
X145028228Y-110941703D01*
G37*
G36*
X162808228Y-110941703D02*
G01*
X162963100Y-111005853D01*
X163102481Y-111098985D01*
X163221015Y-111217519D01*
X163314147Y-111356900D01*
X163378297Y-111511772D01*
X163411000Y-111676184D01*
X163411000Y-111843816D01*
X163378297Y-112008228D01*
X163314147Y-112163100D01*
X163221015Y-112302481D01*
X163102481Y-112421015D01*
X162963100Y-112514147D01*
X162808228Y-112578297D01*
X162643816Y-112611000D01*
X162476184Y-112611000D01*
X162311772Y-112578297D01*
X162156900Y-112514147D01*
X162017519Y-112421015D01*
X161898985Y-112302481D01*
X161805853Y-112163100D01*
X161741703Y-112008228D01*
X161709000Y-111843816D01*
X161709000Y-111676184D01*
X161741703Y-111511772D01*
X161805853Y-111356900D01*
X161898985Y-111217519D01*
X162017519Y-111098985D01*
X162156900Y-111005853D01*
X162311772Y-110941703D01*
X162476184Y-110909000D01*
X162643816Y-110909000D01*
X162808228Y-110941703D01*
X162808228Y-110941703D01*
G37*
G36*
X150026823Y-108381313D02*
G01*
X150187242Y-108429976D01*
X150319906Y-108500886D01*
X150335078Y-108508996D01*
X150464659Y-108615341D01*
X150571004Y-108744922D01*
X150571005Y-108744924D01*
X150650024Y-108892758D01*
X150698687Y-109053177D01*
X150715117Y-109220000D01*
X150698687Y-109386823D01*
X150650024Y-109547242D01*
X150579114Y-109679906D01*
X150571004Y-109695078D01*
X150464659Y-109824659D01*
X150335078Y-109931004D01*
X150335076Y-109931005D01*
X150187242Y-110010024D01*
X150026823Y-110058687D01*
X149901804Y-110071000D01*
X149818196Y-110071000D01*
X149693177Y-110058687D01*
X149532758Y-110010024D01*
X149384924Y-109931005D01*
X149384922Y-109931004D01*
X149255341Y-109824659D01*
X149148996Y-109695078D01*
X149140886Y-109679906D01*
X149069976Y-109547242D01*
X149021313Y-109386823D01*
X149004883Y-109220000D01*
X149021313Y-109053177D01*
X149069976Y-108892758D01*
X149148995Y-108744924D01*
X149148996Y-108744922D01*
X149255341Y-108615341D01*
X149384922Y-108508996D01*
X149400094Y-108500886D01*
X149532758Y-108429976D01*
X149693177Y-108381313D01*
X149818196Y-108369000D01*
X149901804Y-108369000D01*
X150026823Y-108381313D01*
X150026823Y-108381313D01*
G37*
G36*
X157646823Y-108381313D02*
G01*
X157807242Y-108429976D01*
X157939906Y-108500886D01*
X157955078Y-108508996D01*
X158084659Y-108615341D01*
X158191004Y-108744922D01*
X158191005Y-108744924D01*
X158270024Y-108892758D01*
X158318687Y-109053177D01*
X158335117Y-109220000D01*
X158318687Y-109386823D01*
X158270024Y-109547242D01*
X158199114Y-109679906D01*
X158191004Y-109695078D01*
X158084659Y-109824659D01*
X157955078Y-109931004D01*
X157955076Y-109931005D01*
X157807242Y-110010024D01*
X157646823Y-110058687D01*
X157521804Y-110071000D01*
X157438196Y-110071000D01*
X157313177Y-110058687D01*
X157152758Y-110010024D01*
X157004924Y-109931005D01*
X157004922Y-109931004D01*
X156875341Y-109824659D01*
X156768996Y-109695078D01*
X156760886Y-109679906D01*
X156689976Y-109547242D01*
X156641313Y-109386823D01*
X156624883Y-109220000D01*
X156641313Y-109053177D01*
X156689976Y-108892758D01*
X156768995Y-108744924D01*
X156768996Y-108744922D01*
X156875341Y-108615341D01*
X157004922Y-108508996D01*
X157020094Y-108500886D01*
X157152758Y-108429976D01*
X157313177Y-108381313D01*
X157438196Y-108369000D01*
X157521804Y-108369000D01*
X157646823Y-108381313D01*
X157646823Y-108381313D01*
G37*
G36*
X150026823Y-105841313D02*
G01*
X150187242Y-105889976D01*
X150319906Y-105960886D01*
X150335078Y-105968996D01*
X150464659Y-106075341D01*
X150571004Y-106204922D01*
X150571005Y-106204924D01*
X150650024Y-106352758D01*
X150698687Y-106513177D01*
X150715117Y-106680000D01*
X150698687Y-106846823D01*
X150650024Y-107007242D01*
X150579114Y-107139906D01*
X150571004Y-107155078D01*
X150464659Y-107284659D01*
X150335078Y-107391004D01*
X150335076Y-107391005D01*
X150187242Y-107470024D01*
X150026823Y-107518687D01*
X149901804Y-107531000D01*
X149818196Y-107531000D01*
X149693177Y-107518687D01*
X149532758Y-107470024D01*
X149384924Y-107391005D01*
X149384922Y-107391004D01*
X149255341Y-107284659D01*
X149148996Y-107155078D01*
X149140886Y-107139906D01*
X149069976Y-107007242D01*
X149021313Y-106846823D01*
X149004883Y-106680000D01*
X149021313Y-106513177D01*
X149069976Y-106352758D01*
X149148995Y-106204924D01*
X149148996Y-106204922D01*
X149255341Y-106075341D01*
X149384922Y-105968996D01*
X149400094Y-105960886D01*
X149532758Y-105889976D01*
X149693177Y-105841313D01*
X149818196Y-105829000D01*
X149901804Y-105829000D01*
X150026823Y-105841313D01*
X150026823Y-105841313D01*
G37*
G36*
X157646823Y-105841313D02*
G01*
X157807242Y-105889976D01*
X157939906Y-105960886D01*
X157955078Y-105968996D01*
X158084659Y-106075341D01*
X158191004Y-106204922D01*
X158191005Y-106204924D01*
X158270024Y-106352758D01*
X158318687Y-106513177D01*
X158335117Y-106680000D01*
X158318687Y-106846823D01*
X158270024Y-107007242D01*
X158199114Y-107139906D01*
X158191004Y-107155078D01*
X158084659Y-107284659D01*
X157955078Y-107391004D01*
X157955076Y-107391005D01*
X157807242Y-107470024D01*
X157646823Y-107518687D01*
X157521804Y-107531000D01*
X157438196Y-107531000D01*
X157313177Y-107518687D01*
X157152758Y-107470024D01*
X157004924Y-107391005D01*
X157004922Y-107391004D01*
X156875341Y-107284659D01*
X156768996Y-107155078D01*
X156760886Y-107139906D01*
X156689976Y-107007242D01*
X156641313Y-106846823D01*
X156624883Y-106680000D01*
X156641313Y-106513177D01*
X156689976Y-106352758D01*
X156768995Y-106204924D01*
X156768996Y-106204922D01*
X156875341Y-106075341D01*
X157004922Y-105968996D01*
X157020094Y-105960886D01*
X157152758Y-105889976D01*
X157313177Y-105841313D01*
X157438196Y-105829000D01*
X157521804Y-105829000D01*
X157646823Y-105841313D01*
X157646823Y-105841313D01*
G37*
G36*
X150026823Y-103301313D02*
G01*
X150187242Y-103349976D01*
X150319906Y-103420886D01*
X150335078Y-103428996D01*
X150464659Y-103535341D01*
X150571004Y-103664922D01*
X150571005Y-103664924D01*
X150650024Y-103812758D01*
X150698687Y-103973177D01*
X150715117Y-104140000D01*
X150698687Y-104306823D01*
X150650024Y-104467242D01*
X150579114Y-104599906D01*
X150571004Y-104615078D01*
X150464659Y-104744659D01*
X150335078Y-104851004D01*
X150335076Y-104851005D01*
X150187242Y-104930024D01*
X150026823Y-104978687D01*
X149901804Y-104991000D01*
X149818196Y-104991000D01*
X149693177Y-104978687D01*
X149532758Y-104930024D01*
X149384924Y-104851005D01*
X149384922Y-104851004D01*
X149255341Y-104744659D01*
X149148996Y-104615078D01*
X149140886Y-104599906D01*
X149069976Y-104467242D01*
X149021313Y-104306823D01*
X149004883Y-104140000D01*
X149021313Y-103973177D01*
X149069976Y-103812758D01*
X149148995Y-103664924D01*
X149148996Y-103664922D01*
X149255341Y-103535341D01*
X149384922Y-103428996D01*
X149400094Y-103420886D01*
X149532758Y-103349976D01*
X149693177Y-103301313D01*
X149818196Y-103289000D01*
X149901804Y-103289000D01*
X150026823Y-103301313D01*
X150026823Y-103301313D01*
G37*
G36*
X157646823Y-103301313D02*
G01*
X157807242Y-103349976D01*
X157939906Y-103420886D01*
X157955078Y-103428996D01*
X158084659Y-103535341D01*
X158191004Y-103664922D01*
X158191005Y-103664924D01*
X158270024Y-103812758D01*
X158318687Y-103973177D01*
X158335117Y-104140000D01*
X158318687Y-104306823D01*
X158270024Y-104467242D01*
X158199114Y-104599906D01*
X158191004Y-104615078D01*
X158084659Y-104744659D01*
X157955078Y-104851004D01*
X157955076Y-104851005D01*
X157807242Y-104930024D01*
X157646823Y-104978687D01*
X157521804Y-104991000D01*
X157438196Y-104991000D01*
X157313177Y-104978687D01*
X157152758Y-104930024D01*
X157004924Y-104851005D01*
X157004922Y-104851004D01*
X156875341Y-104744659D01*
X156768996Y-104615078D01*
X156760886Y-104599906D01*
X156689976Y-104467242D01*
X156641313Y-104306823D01*
X156624883Y-104140000D01*
X156641313Y-103973177D01*
X156689976Y-103812758D01*
X156768995Y-103664924D01*
X156768996Y-103664922D01*
X156875341Y-103535341D01*
X157004922Y-103428996D01*
X157020094Y-103420886D01*
X157152758Y-103349976D01*
X157313177Y-103301313D01*
X157438196Y-103289000D01*
X157521804Y-103289000D01*
X157646823Y-103301313D01*
X157646823Y-103301313D01*
G37*
G36*
X157646823Y-100761313D02*
G01*
X157807242Y-100809976D01*
X157939906Y-100880886D01*
X157955078Y-100888996D01*
X158084659Y-100995341D01*
X158191004Y-101124922D01*
X158191005Y-101124924D01*
X158270024Y-101272758D01*
X158318687Y-101433177D01*
X158335117Y-101600000D01*
X158318687Y-101766823D01*
X158270024Y-101927242D01*
X158199114Y-102059906D01*
X158191004Y-102075078D01*
X158084659Y-102204659D01*
X157955078Y-102311004D01*
X157955076Y-102311005D01*
X157807242Y-102390024D01*
X157646823Y-102438687D01*
X157521804Y-102451000D01*
X157438196Y-102451000D01*
X157313177Y-102438687D01*
X157152758Y-102390024D01*
X157004924Y-102311005D01*
X157004922Y-102311004D01*
X156875341Y-102204659D01*
X156768996Y-102075078D01*
X156760886Y-102059906D01*
X156689976Y-101927242D01*
X156641313Y-101766823D01*
X156624883Y-101600000D01*
X156641313Y-101433177D01*
X156689976Y-101272758D01*
X156768995Y-101124924D01*
X156768996Y-101124922D01*
X156875341Y-100995341D01*
X157004922Y-100888996D01*
X157020094Y-100880886D01*
X157152758Y-100809976D01*
X157313177Y-100761313D01*
X157438196Y-100749000D01*
X157521804Y-100749000D01*
X157646823Y-100761313D01*
X157646823Y-100761313D01*
G37*
G36*
X150711000Y-102451000D02*
G01*
X149009000Y-102451000D01*
X149009000Y-100749000D01*
X150711000Y-100749000D01*
X150711000Y-102451000D01*
X150711000Y-102451000D01*
G37*
G36*
X162726823Y-100761313D02*
G01*
X162887242Y-100809976D01*
X163019906Y-100880886D01*
X163035078Y-100888996D01*
X163164659Y-100995341D01*
X163271004Y-101124922D01*
X163271005Y-101124924D01*
X163350024Y-101272758D01*
X163398687Y-101433177D01*
X163415117Y-101600000D01*
X163398687Y-101766823D01*
X163350024Y-101927242D01*
X163279114Y-102059906D01*
X163271004Y-102075078D01*
X163164659Y-102204659D01*
X163035078Y-102311004D01*
X163035076Y-102311005D01*
X162887242Y-102390024D01*
X162726823Y-102438687D01*
X162601804Y-102451000D01*
X162518196Y-102451000D01*
X162393177Y-102438687D01*
X162232758Y-102390024D01*
X162084924Y-102311005D01*
X162084922Y-102311004D01*
X161955341Y-102204659D01*
X161848996Y-102075078D01*
X161840886Y-102059906D01*
X161769976Y-101927242D01*
X161721313Y-101766823D01*
X161704883Y-101600000D01*
X161721313Y-101433177D01*
X161769976Y-101272758D01*
X161848995Y-101124924D01*
X161848996Y-101124922D01*
X161955341Y-100995341D01*
X162084922Y-100888996D01*
X162100094Y-100880886D01*
X162232758Y-100809976D01*
X162393177Y-100761313D01*
X162518196Y-100749000D01*
X162601804Y-100749000D01*
X162726823Y-100761313D01*
X162726823Y-100761313D01*
G37*
G36*
X144946823Y-100761313D02*
G01*
X145107242Y-100809976D01*
X145239906Y-100880886D01*
X145255078Y-100888996D01*
X145384659Y-100995341D01*
X145491004Y-101124922D01*
X145491005Y-101124924D01*
X145570024Y-101272758D01*
X145618687Y-101433177D01*
X145635117Y-101600000D01*
X145618687Y-101766823D01*
X145570024Y-101927242D01*
X145499114Y-102059906D01*
X145491004Y-102075078D01*
X145384659Y-102204659D01*
X145255078Y-102311004D01*
X145255076Y-102311005D01*
X145107242Y-102390024D01*
X144946823Y-102438687D01*
X144821804Y-102451000D01*
X144738196Y-102451000D01*
X144613177Y-102438687D01*
X144452758Y-102390024D01*
X144304924Y-102311005D01*
X144304922Y-102311004D01*
X144175341Y-102204659D01*
X144068996Y-102075078D01*
X144060886Y-102059906D01*
X143989976Y-101927242D01*
X143941313Y-101766823D01*
X143924883Y-101600000D01*
X143941313Y-101433177D01*
X143989976Y-101272758D01*
X144068995Y-101124924D01*
X144068996Y-101124922D01*
X144175341Y-100995341D01*
X144304922Y-100888996D01*
X144320094Y-100880886D01*
X144452758Y-100809976D01*
X144613177Y-100761313D01*
X144738196Y-100749000D01*
X144821804Y-100749000D01*
X144946823Y-100761313D01*
X144946823Y-100761313D01*
G37*
G36*
X162837395Y-96875546D02*
G01*
X163010466Y-96947234D01*
X163010467Y-96947235D01*
X163166227Y-97051310D01*
X163298690Y-97183773D01*
X163298691Y-97183775D01*
X163402766Y-97339534D01*
X163474454Y-97512605D01*
X163511000Y-97696333D01*
X163511000Y-97883667D01*
X163474454Y-98067395D01*
X163402766Y-98240466D01*
X163402765Y-98240467D01*
X163298690Y-98396227D01*
X163166227Y-98528690D01*
X163087818Y-98581081D01*
X163010466Y-98632766D01*
X162837395Y-98704454D01*
X162653667Y-98741000D01*
X162466333Y-98741000D01*
X162282605Y-98704454D01*
X162109534Y-98632766D01*
X162032182Y-98581081D01*
X161953773Y-98528690D01*
X161821310Y-98396227D01*
X161717235Y-98240467D01*
X161717234Y-98240466D01*
X161645546Y-98067395D01*
X161609000Y-97883667D01*
X161609000Y-97696333D01*
X161645546Y-97512605D01*
X161717234Y-97339534D01*
X161821309Y-97183775D01*
X161821310Y-97183773D01*
X161953773Y-97051310D01*
X162109533Y-96947235D01*
X162109534Y-96947234D01*
X162282605Y-96875546D01*
X162466333Y-96839000D01*
X162653667Y-96839000D01*
X162837395Y-96875546D01*
X162837395Y-96875546D01*
G37*
G36*
X145057395Y-96875546D02*
G01*
X145230466Y-96947234D01*
X145230467Y-96947235D01*
X145386227Y-97051310D01*
X145518690Y-97183773D01*
X145518691Y-97183775D01*
X145622766Y-97339534D01*
X145694454Y-97512605D01*
X145731000Y-97696333D01*
X145731000Y-97883667D01*
X145694454Y-98067395D01*
X145622766Y-98240466D01*
X145622765Y-98240467D01*
X145518690Y-98396227D01*
X145386227Y-98528690D01*
X145307818Y-98581081D01*
X145230466Y-98632766D01*
X145057395Y-98704454D01*
X144873667Y-98741000D01*
X144686333Y-98741000D01*
X144502605Y-98704454D01*
X144329534Y-98632766D01*
X144252182Y-98581081D01*
X144173773Y-98528690D01*
X144041310Y-98396227D01*
X143937235Y-98240467D01*
X143937234Y-98240466D01*
X143865546Y-98067395D01*
X143829000Y-97883667D01*
X143829000Y-97696333D01*
X143865546Y-97512605D01*
X143937234Y-97339534D01*
X144041309Y-97183775D01*
X144041310Y-97183773D01*
X144173773Y-97051310D01*
X144329533Y-96947235D01*
X144329534Y-96947234D01*
X144502605Y-96875546D01*
X144686333Y-96839000D01*
X144873667Y-96839000D01*
X145057395Y-96875546D01*
X145057395Y-96875546D01*
G37*
G36*
X145731000Y-96201000D02*
G01*
X143829000Y-96201000D01*
X143829000Y-94299000D01*
X145731000Y-94299000D01*
X145731000Y-96201000D01*
X145731000Y-96201000D01*
G37*
G36*
X163511000Y-96201000D02*
G01*
X161609000Y-96201000D01*
X161609000Y-94299000D01*
X163511000Y-94299000D01*
X163511000Y-96201000D01*
X163511000Y-96201000D01*
G37*
M02*
