G04 #@! TF.GenerationSoftware,KiCad,Pcbnew,(5.1.0)-1*
G04 #@! TF.CreationDate,2019-04-06T20:38:15-05:00*
G04 #@! TF.ProjectId,kicon19-blinky,6b69636f-6e31-4392-9d62-6c696e6b792e,rev?*
G04 #@! TF.SameCoordinates,Original*
G04 #@! TF.FileFunction,Copper,L2,Bot*
G04 #@! TF.FilePolarity,Positive*
%FSLAX46Y46*%
G04 Gerber Fmt 4.6, Leading zero omitted, Abs format (unit mm)*
G04 Created by KiCad (PCBNEW (5.1.0)-1) date 2019-04-06 20:38:15*
%MOMM*%
%LPD*%
G04 APERTURE LIST*
%ADD10O,1.600000X1.600000*%
%ADD11R,1.600000X1.600000*%
%ADD12O,3.500000X2.200000*%
%ADD13O,2.500000X1.500000*%
%ADD14R,2.500000X1.500000*%
%ADD15C,1.600000*%
%ADD16C,1.800000*%
%ADD17R,1.800000X1.800000*%
%ADD18R,3.000000X3.000000*%
%ADD19C,3.000000*%
%ADD20C,0.508000*%
%ADD21C,0.254000*%
G04 APERTURE END LIST*
D10*
X157480000Y-101600000D03*
X149860000Y-109220000D03*
X157480000Y-104140000D03*
X149860000Y-106680000D03*
X157480000Y-106680000D03*
X149860000Y-104140000D03*
X157480000Y-109220000D03*
D11*
X149860000Y-101600000D03*
D12*
X162560000Y-123770000D03*
X162560000Y-115570000D03*
D13*
X162560000Y-121670000D03*
X162560000Y-119670000D03*
D14*
X162560000Y-117670000D03*
D15*
X162560000Y-111760000D03*
D10*
X162560000Y-101600000D03*
X144780000Y-101600000D03*
D15*
X144780000Y-111760000D03*
D10*
X144780000Y-114300000D03*
D15*
X144780000Y-124460000D03*
D16*
X162560000Y-97790000D03*
D17*
X162560000Y-95250000D03*
D16*
X144780000Y-97790000D03*
D17*
X144780000Y-95250000D03*
D15*
X152440000Y-114300000D03*
X154940000Y-114300000D03*
D18*
X153670000Y-120650000D03*
D19*
X153670000Y-141140000D03*
D20*
X146188000Y-95250000D02*
X162560000Y-95250000D01*
X144780000Y-95250000D02*
X146188000Y-95250000D01*
X152170001Y-139640001D02*
X153670000Y-141140000D01*
X143002000Y-130472000D02*
X152170001Y-139640001D01*
X144780000Y-95250000D02*
X144780000Y-95330238D01*
X144780000Y-95330238D02*
X143002000Y-97108238D01*
X146228630Y-119380000D02*
X143002000Y-119380000D01*
X151308630Y-114300000D02*
X146228630Y-119380000D01*
X152440000Y-114300000D02*
X151308630Y-114300000D01*
X143002000Y-97108238D02*
X143002000Y-119380000D01*
X143002000Y-119380000D02*
X143002000Y-130472000D01*
X149860000Y-112851370D02*
X151308630Y-114300000D01*
X149860000Y-109220000D02*
X149860000Y-112851370D01*
X160802000Y-119670000D02*
X162560000Y-119670000D01*
X156658000Y-119670000D02*
X160802000Y-119670000D01*
X155678000Y-120650000D02*
X156658000Y-119670000D01*
X153670000Y-120650000D02*
X155678000Y-120650000D01*
X151570000Y-117670000D02*
X144780000Y-124460000D01*
X154940000Y-117602000D02*
X154872000Y-117670000D01*
X154940000Y-114300000D02*
X154940000Y-117602000D01*
X162560000Y-117670000D02*
X154872000Y-117670000D01*
X154872000Y-117670000D02*
X151570000Y-117670000D01*
X158279999Y-102399999D02*
X157480000Y-101600000D01*
X164122001Y-108242001D02*
X158279999Y-102399999D01*
X164122001Y-112509761D02*
X164122001Y-108242001D01*
X163309761Y-113322001D02*
X164122001Y-112509761D01*
X155917999Y-113322001D02*
X163309761Y-113322001D01*
X154940000Y-114300000D02*
X155917999Y-113322001D01*
X144780000Y-97790000D02*
X144780000Y-101600000D01*
X162560000Y-97790000D02*
X162560000Y-101600000D01*
X145579999Y-113500001D02*
X144780000Y-114300000D01*
X147358011Y-111721989D02*
X145579999Y-113500001D01*
X147358011Y-102793989D02*
X147358011Y-111721989D01*
X148552000Y-101600000D02*
X147358011Y-102793989D01*
X149860000Y-101600000D02*
X148552000Y-101600000D01*
X155702000Y-106680000D02*
X157480000Y-106680000D01*
X153670000Y-104648000D02*
X155702000Y-106680000D01*
X146342001Y-110197999D02*
X146342001Y-102146397D01*
X146342001Y-102146397D02*
X148450399Y-100037999D01*
X144780000Y-111760000D02*
X146342001Y-110197999D01*
X148450399Y-100037999D02*
X151269601Y-100037999D01*
X151269601Y-100037999D02*
X153670000Y-102438398D01*
X153670000Y-102438398D02*
X153670000Y-104648000D01*
X160020000Y-111760000D02*
X162560000Y-111760000D01*
X157480000Y-109220000D02*
X160020000Y-111760000D01*
D21*
G36*
X164973000Y-91313000D02*
G01*
X142367000Y-91313000D01*
X142367000Y-86487000D01*
X164973000Y-86487000D01*
X164973000Y-91313000D01*
X164973000Y-91313000D01*
G37*
X164973000Y-91313000D02*
X142367000Y-91313000D01*
X142367000Y-86487000D01*
X164973000Y-86487000D01*
X164973000Y-91313000D01*
M02*
