M48
; DRILL file {KiCad (5.1.0)-1} date 4/5/2019 6:00:02 PM
; FORMAT={-:-/ absolute / inch / decimal}
; #@! TF.CreationDate,2019-04-05T18:00:02-05:00
; #@! TF.GenerationSoftware,Kicad,Pcbnew,(5.1.0)-1
FMAT,2
INCH
T1C0.0315
T2C0.0354
T3C0.0591
%
G90
G05
T1
X5.7Y-4.0
X6.0016Y-4.5
X6.1Y-4.5
X6.4Y-4.6327
X6.4Y-4.7114
X6.4Y-4.7902
X5.9Y-4.0
X5.9Y-4.1
X5.9Y-4.2
X5.9Y-4.3
X6.2Y-4.0
X6.2Y-4.1
X6.2Y-4.2
X6.2Y-4.3
X6.4Y-4.0
X6.4Y-4.4
X5.7Y-4.5
X5.7Y-4.9
X5.7Y-4.4
T2
X6.4Y-3.75
X6.4Y-3.85
X5.7Y-3.75
X5.7Y-3.85
T3
X6.4Y-4.55
X6.4Y-4.8728
X6.05Y-4.75
X6.05Y-5.5567
T0
M30
